<svg id="Layer_1" data-name="Layer 1" xmlns="http://www.w3.org/2000/svg" xmlns:xlink="http://www.w3.org/1999/xlink" viewBox="0 0 338.04 278.11"><defs><linearGradient id="linear-gradient" x1="216.2" y1="188.99" x2="168.89" y2="67.92" gradientTransform="matrix(0.39, 0.92, 0.92, -0.39, -7.58, 86.59)" gradientUnits="userSpaceOnUse"><stop offset="0.01"/><stop offset="0.13" stop-opacity="0.69"/><stop offset="0.25" stop-opacity="0.32"/><stop offset="1" stop-opacity="0"/></linearGradient><linearGradient id="linear-gradient-2" x1="203.17" y1="155.95" x2="234.14" y2="217.33" gradientTransform="matrix(1, 0, 0, -1, -0.01, 351.99)" xlink:href="#linear-gradient"/><linearGradient id="linear-gradient-3" x1="93.66" y1="225.92" x2="235.94" y2="127.18" gradientTransform="matrix(0.39, 0.92, 0.92, -0.39, -96.95, 106.37)" xlink:href="#linear-gradient"/><linearGradient id="linear-gradient-4" x1="240.74" y1="244.92" x2="158.53" y2="-12.43" gradientTransform="matrix(1, 0, 0, -1, 0, 352)" xlink:href="#linear-gradient"/></defs><title>7</title><path d="M358.81,240.48c-.51-2.66-1-5.3-1.34-7.89-3.64-27.91,5.23-57.73-5.65-83.69-6.48-15.46-19.16-27.34-31.61-38.57C285.57,79.09,249.4,48.58,207.26,28.6a58.54,58.54,0,0,0-12.47-4.66c-6.06-1.31-12.35-.86-18.53-.4-15,1.11-30.39,2.29-44.37,8S106,47.21,96.06,58.54a154.58,154.58,0,0,0-37.85,90.33C57,165.24,47.81,172.6,39.58,185.82,27.25,205.63,19,228.5,25.33,250.42c6.7,23.13,29,39.4,52.55,44.37s48.18.26,71-7.33c14.94-5,30-11.24,45.73-10.4,14.6.77,28.07,7.6,41.77,12.71a183.48,183.48,0,0,0,76.1,11c10.31-.71,20.9-2.42,29.63-7.95,9.36-5.93,15.37-15.85,18.09-26.43C362.4,258.05,360.48,249.13,358.81,240.48Z" transform="translate(-23.15 -23.08)" fill="#070d59" opacity="0.18" style="isolation:isolate"/><path d="M80.54,149.3c-6.56,5.88-15,12.32-14,21.08.41,3.74,2.59,7.06,3.37,10.75,4.36,20.79-34.61,31.45-30.32,52.26,1.8,8.75,11.42,14,20.36,14.13s17.38-3.72,25.63-7.17c7.48-3.13,18.44-4.74,21.61,2.72,2,4.78-.9,10-3.08,14.76S101,269.19,105.31,272c3.09,2,7.18.88,10.61-.49,19.16-7.62,39.41-20.83,58.64-13.38,11.7,4.53,19.5,15.82,30.64,21.58,11.29,5.85,24.68,5.41,37.39,4.82l46.6-2.14c5.05-.23,10.28-.51,14.78-2.83,7-3.63,10.75-11.4,14-18.64l19.7-44.16a7.1,7.1,0,0,0,.9-4.18c-.76-3.69-5.93-3.66-9.43-5.05-7-2.78-7.71-12.54-5.59-19.77s5.92-14.7,3.73-21.91c-5.62-18.58-39.91-11.09-47.46-29-1.26-3-1.51-6.35-2.73-9.37-3.93-9.72-16.38-12.87-26.81-11.72s-20.57,5.22-31,4.56c-14.4-.9-26.63-10.49-37.42-20.07s-21.94-20-36-23.1c-7.77-1.73-16.94-.32-23.58,4.2-9.51,6.48-7.08,12.4-9.91,21.81C107.61,118.82,93,138.17,80.54,149.3Z" transform="translate(-23.15 -23.08)" fill="#070d59" opacity="0.38" style="isolation:isolate"/><rect x="162.21" y="82.17" width="100.52" height="211.75" rx="38.11" transform="translate(-66.64 287.39) rotate(-67.07)" fill="#070d59"/><rect x="187.34" y="107.7" width="18.18" height="211.75" rx="9.09" transform="translate(-99.94 288.2) rotate(-67.07)" fill="url(#linear-gradient)"/><path d="M132.13,121.11,310.4,196.53a9.09,9.09,0,0,1,4.83,11.91h0a9.09,9.09,0,0,1-11.91,4.83L125,137.85a9.09,9.09,0,0,1-4.83-11.91h0A9.1,9.1,0,0,1,132.13,121.11Z" transform="translate(-23.15 -23.08)" fill="url(#linear-gradient-2)"/><rect x="85.01" y="123.06" width="103.63" height="65.96" rx="22.28" transform="translate(-83.33 198.18) rotate(-67.07)" fill="url(#linear-gradient-3)"/><rect x="80.13" y="121" width="103.63" height="65.96" rx="22.28" transform="translate(-84.42 192.43) rotate(-67.07)" fill="#070d59"/><path d="M130.87,148.94a12.23,12.23,0,0,0-3.37,3,11.85,11.85,0,0,0-1.28,4.91,34.29,34.29,0,0,1-2.49,9c-2.35,5.47-6.09,10.28-8.18,15.86s-2.12,12.6,2.21,16.69,11.34,3.65,17.08,1.87,11.35-4.63,17.36-4.43c6.82.23,12.8,4.33,19.12,6.91,9,3.67,18.94,4.26,28.33,6.79,14.28,3.84,27,12,40.83,17.16,15.63,5.79,32.72,7.68,47.46,15.44,1.79.94,3.67,2,5.68,1.83,3.63-.29,5.7-4.19,7.08-7.57.77-1.88,1.56-3.91,1.1-5.89-.51-2.21-2.43-3.78-4.23-5.16-15.18-11.62-30.72-23.06-48.09-31-7.54-3.46-15.36-6.25-23.17-9-6-2.13-12-4.26-18-6.27-9.26-3.09-18.61-5.89-27.75-9.29-4.21-1.57-8.49-3.35-11.64-6.55-4.67-4.76-6-11.74-8-18.1a73.27,73.27,0,0,0-11.26-21.85c-5.43,2.86-5.9,7.64-8.08,12.65A33.17,33.17,0,0,1,130.87,148.94Z" transform="translate(-23.15 -23.08)" fill="url(#linear-gradient-4)"/><path d="M232.74,180.64s24.4,15.83,26.09,16.83,12,4.75,16.52,7.76,20.84,20.27,22.71,21.21,9.78,4.32,9.76,5.82S302,240,298.44,239.2s-9-5.42-9-5.42l-7.7-7.91s-22-14.39-23.65-15.92-2.81-2.47-2.81-2.47-26.1-8.22-28.35-11.15S232.74,180.64,232.74,180.64Z" transform="translate(-23.15 -23.08)" fill="#ffb79c"/><path d="M250.51,219.57c5.56,1.07,11.19,1.7,16.78,2.62A161.84,161.84,0,0,1,303,232.36c2.51,1,5.43,2.12,7.8.81,1.51-.82,2.38-2.43,3.15-4a5.19,5.19,0,0,0,.7-2.16,3.68,3.68,0,0,0-2.83-3.24,14.75,14.75,0,0,0-4.59-.23c-15.43.39-28.53-12.42-43.94-13.47-4.38-.3-8.94.35-13.06-1.18C246.75,207.66,244,205,241,203a47.32,47.32,0,0,0-7.63-3.91c-4-1.69-8.82-3.15-12.43-.75-5.83,3.89-2.8,11.54,2.45,13.66A149.93,149.93,0,0,0,250.51,219.57Z" transform="translate(-23.15 -23.08)" fill="#ffb79c"/><path d="M146.42,180.67c4.2,3.71,9.5,5.94,14.86,7.58s10.87,2.76,16.16,4.6a59,59,0,0,0,8,2.55,12,12,0,0,0,8.15-1,15.37,15.37,0,0,0,3.87-3.5,91.8,91.8,0,0,0,6.64-8.71,9.36,9.36,0,0,0,1.61-3.33c.54-2.85,2.15-7.61.09-9.66-1.79-1.76-7.34-1.31-9.45-2.68s-4.68-2.6-7-4c-2-1.17-3.86-2.52-5.73-3.87l-6.09-4.37A51,51,0,0,1,172,150c-2.55-2.42-4.65-5.4-7.68-7.17s-7.56-1.81-9.5,1.13a7.26,7.26,0,0,0-.73,5.34c.35,1.81,1.07,3.53,1.52,5.32,1.67,6.58-12-2.19-10.67,8.55.47,3.74,5.55,4.56,2.39,7.88S142.26,177,146.42,180.67Z" transform="translate(-23.15 -23.08)" fill="#ffb79c"/><path d="M128.2,182.76a28.43,28.43,0,0,1,.26-3.8l.71-5.93a10.34,10.34,0,0,1,1.38-4.82c1-1.49,2.89-2.49,3.31-4.26s-1-3.75-2.59-4.85a3.58,3.58,0,0,0-2-.79c-1.61,0-2.63,1.7-3.26,3.18-2.07,4.82-3.66,9.88-6.49,14.28-.92,1.44-2,2.79-2.8,4.28a34.56,34.56,0,0,0-2.69,6.89,6.32,6.32,0,0,0-.43,2.58,6.48,6.48,0,0,0,1.14,2.62c1.53,2.43,3.49,5.13,6.36,5.32,2.23.15,4.2-1.3,6.23-2.25,3.4-1.59,7.29-1.81,10.82-3.12,2.37-.89,4.55-2.25,6.94-3.08,3.34-1.16,7.08-1.27,10.13-3.06,1.92-1.13,3.57-3.32,2.94-5.46-.8-2.7-4.62-5.41-6.95-6.76a6.44,6.44,0,0,0-6.68-.24c-2.71,1.41-5,3.58-7.62,5.17C136.12,179.13,128.2,182.66,128.2,182.76Z" transform="translate(-23.15 -23.08)" fill="#ffb79c"/><path d="M152.24,135.17a29.76,29.76,0,0,1-.29-3.65L150,134.66a39.68,39.68,0,0,1-4.17,6.24c-1.38,1.49-3.15,2.51-3.89,4.55-.62,1.71-.37,3.79-1.57,5.16s-3.63,1.37-5.46.69a3.74,3.74,0,0,1-1.82-1.2c-.92-1.33-.13-3.13.72-4.51,2.74-4.46,5.95-8.68,7.91-13.54.64-1.58,1.15-3.22,1.88-4.76a35.59,35.59,0,0,1,4.07-6.17,4.82,4.82,0,0,1,4.66-2.42c2.87-.15,6.21-.11,8,2.13,1.41,1.73,1.36,4.18,1.75,6.38.67,3.7,2.73,7,3.7,10.64.65,2.44.79,5,1.49,7.44,1,3.4,3,6.51,3.35,10,.19,2.22-.65,4.83-2.76,5.55-2.66.91-7.09-.65-9.53-1.77a6.42,6.42,0,0,1-4.05-5.32,41.18,41.18,0,0,1-.12-7.53c.08-2,.59-3.67-.1-5.68-.47-1.39-1.17-2.69-1.57-4.1A11,11,0,0,1,152.24,135.17Z" transform="translate(-23.15 -23.08)" fill="#ffb79c"/><path d="M138.47,150.49a5.6,5.6,0,0,1,1.73-.13,3.9,3.9,0,0,1,1.1.44,20.86,20.86,0,0,1,6.33,5.38,4.67,4.67,0,0,1,.8,1.34,3.72,3.72,0,0,1-.31,2.58c-1.3,2.84-4.43,4.54-7.54,4.8a18.56,18.56,0,0,1-9.05-2,8.48,8.48,0,0,1-2.91-1.88c-1.63-1.8-1.62-4.66-.55-6.84.79-1.62,2.62-4.09,4.42-4.7.83-.28,1.57.21,2.34.51A7.19,7.19,0,0,0,138.47,150.49Z" transform="translate(-23.15 -23.08)" fill="#ffb79c"/><path d="M149.3,155.55a7.14,7.14,0,0,1-.67,10.08,7.49,7.49,0,0,1-1.17.83,4.87,4.87,0,0,1-3,.7,18.82,18.82,0,0,1-2.84-.92,20.46,20.46,0,0,0-3.3-.45,32,32,0,0,1-5.54-1.37,26.37,26.37,0,0,1-5.55-2.22c-1.2-.7-2.41-1.88-2.19-3.25a1.31,1.31,0,0,0,0-.68,1.08,1.08,0,0,0-.56-.49,3.5,3.5,0,0,1-1.94-2.51,5,5,0,0,1,1.18-3.19,17.93,17.93,0,0,1,4-4.72,6.09,6.09,0,0,1,5.88-1,9.65,9.65,0,0,1,1.38.82c.67.46,4.5,2.32,2.84,3.3a2.3,2.3,0,0,1-1.32.19l-2.84-.12c-.27,0-.62,0-.7.29a.62.62,0,0,0,0,.33,5.61,5.61,0,0,1-1.6,5.29,5.22,5.22,0,0,0-1.29,1.36,3.64,3.64,0,0,0,0,2.35,3.39,3.39,0,0,0,.44,1.26,2.52,2.52,0,0,0,.82.77c2,1.38,4.49,1.82,6.89,2.24a3.31,3.31,0,0,0,1.33,0,1.13,1.13,0,0,0,.91-.87,3.15,3.15,0,0,1-1.51-2c-.48-1.87.78-3.67,1.45-5.48a2.63,2.63,0,0,1,.89-1.45,3.08,3.08,0,0,1,1.62-.17c.55,0,1.21-.17,1.37-.7s-.31-1.06-.75-1.43l-1.08-.93c-.71-.61-.72-1.68.33-.93.8.56,1.3,1.44,2.06,2C146.37,153.71,148.06,154.13,149.3,155.55Z" transform="translate(-23.15 -23.08)" fill="#292526"/><path d="M187.69,191.22c-5.11,6.05,4.9,10.08,9.11,12.64a136.6,136.6,0,0,0,21.33,10.5,2.25,2.25,0,0,0,1.25.22,2.19,2.19,0,0,0,1.18-1,72.66,72.66,0,0,0,4.21-6.25,6.74,6.74,0,0,0,1.14-2.83,18.57,18.57,0,0,0-.28-2.79c-.12-2,2.86-4-.21-5.47,1.67.14,3.66.15,4.66-1.19a4.87,4.87,0,0,0,.63-1.37q2.55-7.4,4.78-14.89-6.17-3.33-12.46-6.42a57.7,57.7,0,0,0-5.75-2.54,30.75,30.75,0,0,0-10.05-1.8,11.45,11.45,0,0,0-3.86.49c-4.63,1.6-5.22,6-7.24,10A67.88,67.88,0,0,1,187.69,191.22Z" transform="translate(-23.15 -23.08)" fill="#070d59"/></svg>